<svg xmlns="http://www.w3.org/2000/svg" viewBox="0 0 64 64"><g data-name="Book"><path d="M7 18H1v37h62V18H7z" style="fill:#337fef"/><path style="fill:#185bd1" d="m18 58-4 3V49h8v12l-4-3zM35 18h-3v37h31V18H35z"/><path d="M57 49H36a4 4 0 0 0-4 4V17a4 4 0 0 1 4-4h21z" style="fill:#337fef"/><path d="M21 13h7a4 4 0 0 1 4 4v36a4 4 0 0 0-4-4H7V13h14z" style="fill:#48acff"/><path style="fill:#fcd354" d="M36 17h17v12H36z"/><path style="fill:#28bf7e" d="m46 29-4-4 4-4 7 7v1h-7z"/><path d="M11 23.735V6.178a3.124 3.124 0 0 1 2.698-3.163Q13.851 3 14 3a3.003 3.003 0 0 1 3 3v17.735L14 29z" style="fill:#337fef"/><path d="M14 3q-.15 0-.302.015A3.124 3.124 0 0 0 11 6.178V8h6V6a3.003 3.003 0 0 0-3-3zM14 29l2.849-5h-5.698L14 29z" style="fill:#185bd1"/><path style="fill:#3de29f" d="M36 29v-2l4-4 6 6H36z"/><path d="M63 17h-5v-4a1 1 0 0 0-1-1H36a4.981 4.981 0 0 0-4 2.03A4.981 4.981 0 0 0 28 12h-7a1 1 0 0 0 0 2h7a3.003 3.003 0 0 1 3 3v32.002A4.974 4.974 0 0 0 28 48H8V14h2v10a1.23 1.23 0 0 0 .143.515l3 5a1 1 0 0 0 1.714 0l3-5A1.24 1.24 0 0 0 18 24V6a4 4 0 0 0-8 0v6H7a1 1 0 0 0-1 1v4H1a1 1 0 0 0-1 1v37a1 1 0 0 0 1 1h9a1 1 0 0 0 0-2H2V19h4v30a1 1 0 0 0 1 1h6v11a1 1 0 0 0 1.6.8l3.4-2.55 3.4 2.55A1 1 0 0 0 23 61V50h5a3.003 3.003 0 0 1 3 3v1h-5a1 1 0 0 0 0 2h37a1 1 0 0 0 1-1V18a1 1 0 0 0-1-1zm-47 6h-4V9h4zm-2 4.056L12.766 25h2.468zM14 4a2.002 2.002 0 0 1 2 2v1h-4V6a2.002 2.002 0 0 1 2-2zm7 55-2.4-1.8a.998.998 0 0 0-1.2 0L15 59v-9h6zm15-45h20v34H36a4.974 4.974 0 0 0-3 1.002V17a3.003 3.003 0 0 1 3-3zm26 40H33v-1a3.003 3.003 0 0 1 3-3h21a1 1 0 0 0 1-1V19h4z" style="fill:#231e23"/><path d="M36 30h17a1 1 0 0 0 1-1V17a1 1 0 0 0-1-1H36a1 1 0 0 0-1 1v12a1 1 0 0 0 1 1zm1-2.586 3-3L43.586 28H37zm9.414.586-3-3L46 22.414 51.586 28zM52 18v7.586l-5.293-5.293a1 1 0 0 0-1.414 0L42 23.586l-1.293-1.293a1 1 0 0 0-1.414 0L37 24.586V18zM36 34h17a1 1 0 0 0 0-2H36a1 1 0 0 0 0 2zM36 38h17a1 1 0 0 0 0-2H36a1 1 0 0 0 0 2zM36 42h17a1 1 0 0 0 0-2H36a1 1 0 0 0 0 2zM36 46h17a1 1 0 0 0 0-2H36a1 1 0 0 0 0 2zM28 32H11a1 1 0 0 0 0 2h17a1 1 0 0 0 0-2zM19 30h9a1 1 0 0 0 0-2h-9a1 1 0 0 0 0 2zM21 26h7a1 1 0 0 0 0-2h-7a1 1 0 0 0 0 2zM21 22h7a1 1 0 0 0 0-2h-7a1 1 0 0 0 0 2zM21 18h7a1 1 0 0 0 0-2h-7a1 1 0 0 0 0 2zM28 36H11a1 1 0 0 0 0 2h17a1 1 0 0 0 0-2zM28 40H11a1 1 0 0 0 0 2h17a1 1 0 0 0 0-2zM28 44H11a1 1 0 0 0 0 2h17a1 1 0 0 0 0-2z" style="fill:#231e23"/><circle cx="42" cy="20" r="1" style="fill:#231e23"/></g></svg>